<?xml version="1.0" standalone="no"?>
<!DOCTYPE svg PUBLIC "-//W3C//DTD SVG 1.1//EN" "http://www.w3.org/Graphics/SVG/1.1/DTD/svg11.dtd" >
<svg xmlns="http://www.w3.org/2000/svg">
<metadata></metadata>
<defs>
<font id="gd-digit13led-otfregular" horiz-adv-x="1024" >
<font-face units-per-em="2048" ascent="1597" descent="-451" />
<missing-glyph horiz-adv-x="500" />
<glyph horiz-adv-x="2048" />
<glyph horiz-adv-x="2048" />
<glyph unicode="&#xd;" horiz-adv-x="2048" />
<glyph unicode=" " />
<glyph unicode="!" d="M70 6q-8 22 10 43l129 131h461l106 -106q27 -20 -4 -45l-24 -25q-12 -12 -39 -12h-603q-26 0 -36 14zM471 887h129l57 485h-131z" />
<glyph unicode="&#x22;" d="M94 895l64 508q11 32 18 41l27 24q13 9 18 9q14 0 23 -9l104 -104l-57 -473l-88 -84q-9 -12 -19 -12q-14 0 -26 12l-52 53q-12 12 -12 35zM776 907l60 475l127 125q18 14 30 -4l33 -47q19 -25 6 -57l-59 -471q-7 -41 -25 -56l-47 -51q-8 -8 -20 -8q-9 0 -17 8z" />
<glyph unicode="#" d="M70 6q-8 22 10 43l129 131h461l106 -106q27 -20 -4 -45l-24 -25q-12 -12 -39 -12h-603q-26 0 -36 14zM221 758q-14 14 4 35l99 86h442l63 -58q11 -7 10.5 -19t-12.5 -22l-88 -88h-448zM248 1502q0 10 8 18l51 47q16 24 39 24h590q9 0 25 -24q3 -23 -5 -37l-143 -144h-457 l-100 99q-8 7 -8 17z" />
<glyph unicode="$" d="M70 6q-8 22 10 43l129 131h461l106 -106q27 -20 -4 -45l-24 -25q-12 -12 -39 -12h-603q-26 0 -36 14zM94 895l64 508q11 32 18 41l27 24q13 9 18 9q14 0 23 -9l104 -104l-57 -473l-88 -84q-9 -12 -19 -12q-14 0 -26 12l-52 53q-12 12 -12 35zM221 758q-14 14 4 35l99 86 h442l63 -58q11 -7 10.5 -19t-12.5 -22l-88 -88h-448zM248 1502q0 10 8 18l51 47q16 24 39 24h590q9 0 25 -24q3 -23 -5 -37l-143 -144h-457l-100 99q-8 7 -8 17zM381 193l59 485h127l-57 -485h-129zM471 887l55 485h131l-57 -485h-129zM690 186l62 486l106 108q8 9 16.5 9 t14.5 -9l45 -43q14 -21 14 -41l-67 -544q-5 -17 -23 -39l-29 -27q-8 -8 -18 -10q-11 3 -18 10z" />
<glyph unicode="%" d="M94 895l64 508q11 32 18 41l27 24q13 9 18 9q14 0 23 -9l104 -104l-57 -473l-88 -84q-9 -12 -19 -12q-14 0 -26 12l-52 53q-12 12 -12 35zM215 193l27 210l186 275l-25 -213zM610 887l27 229l184 256l-26 -219zM690 186l62 486l106 108q8 9 16.5 9t14.5 -9l45 -43 q14 -21 14 -41l-67 -544q-5 -17 -23 -39l-29 -27q-8 -8 -18 -10q-11 3 -18 10z" />
<glyph unicode="&#x26;" d="M8 145l55 514q6 29 31 48l51 51q10 10 25 10q8 0 20 -10l76 -70l-63 -487l-133 -129q-21 -21 -33 0l-17 28q-12 12 -12 45zM70 6q-8 22 10 43l129 131h461l106 -106q27 -20 -4 -45l-24 -25q-12 -12 -39 -12h-603q-26 0 -36 14zM94 895l64 508q11 32 18 41l27 24 q13 9 18 9q14 0 23 -9l104 -104l-57 -473l-88 -84q-9 -12 -19 -12q-14 0 -26 12l-52 53q-12 12 -12 35zM221 758l70 -66h223l23 187h-213l-99 -86q-18 -21 -4 -35zM248 1502q0 10 8 18l51 47q16 24 39 24h590q9 0 25 -24q3 -23 -5 -37l-143 -144h-457l-100 99q-8 7 -8 17z M690 186l62 486l106 108q8 9 16.5 9t14.5 -9l45 -43q14 -21 14 -41l-67 -544q-5 -17 -23 -39l-29 -27q-8 -8 -18 -10q-11 3 -18 10z" />
<glyph unicode="'" d="M94 895l64 508q11 32 18 41l27 24q13 9 18 9q14 0 23 -9l104 -104l-57 -473l-88 -84q-9 -12 -19 -12q-14 0 -26 12l-52 53q-12 12 -12 35z" />
<glyph unicode="(" d="M94 895l64 508q11 32 18 41l27 24q13 9 18 9q14 0 23 -9l104 -104l-57 -473l-88 -84q-9 -12 -19 -12q-14 0 -26 12l-52 53q-12 12 -12 35zM248 1502q0 10 8 18l51 47q16 24 39 24h590q9 0 25 -24q3 -23 -5 -37l-143 -144h-457l-100 99q-8 7 -8 17z" />
<glyph unicode=")" d="M70 6q-8 22 10 43l129 131h461l106 -106q27 -20 -4 -45l-24 -25q-12 -12 -39 -12h-603q-26 0 -36 14zM690 186l62 486l106 108q8 9 16.5 9t14.5 -9l45 -43q14 -21 14 -41l-67 -544q-5 -17 -23 -39l-29 -27q-8 -8 -18 -10q-11 3 -18 10z" />
<glyph unicode="*" d="M215 193l27 210l186 275l-25 -213zM221 758q-14 14 4 35l99 86h442l63 -58q11 -7 10.5 -19t-12.5 -22l-88 -88h-448zM336 1153l26 219l121 -256l-28 -229zM381 193l59 485h127l-57 -485h-129zM471 887l55 485h131l-57 -485h-129zM553 465l25 213l127 -272l-29 -213z M610 887l27 229l184 256l-26 -219z" />
<glyph unicode="+" d="M221 758q-14 14 4 35l99 86h442l63 -58q11 -7 10.5 -19t-12.5 -22l-88 -88h-448zM381 193l59 485h127l-57 -485h-129zM471 887l55 485h131l-57 -485h-129z" />
<glyph unicode="," d="M215 193l27 210l186 275l-25 -213z" />
<glyph unicode="-" d="M221 758q-14 14 4 35l99 86h442l63 -58q11 -7 10.5 -19t-12.5 -22l-88 -88h-448z" />
<glyph unicode="." d="M8 145l55 514q6 29 31 48l51 51q10 10 25 10q8 0 20 -10l76 -70l-63 -487l-133 -129q-21 -21 -33 0l-17 28q-12 12 -12 45z" />
<glyph unicode="/" d="M215 193l27 210l186 275l-25 -213zM610 887l27 229l184 256l-26 -219z" />
<glyph unicode="0" d="M8 145l55 514q6 29 31 48l51 51q10 10 25 10q8 0 20 -10l76 -70l-63 -487l-133 -129q-21 -21 -33 0l-17 28q-12 12 -12 45zM70 6q-8 22 10 43l129 131h461l106 -106q27 -20 -4 -45l-24 -25q-12 -12 -39 -12h-603q-26 0 -36 14zM94 895l64 508q11 32 18 41l27 24 q13 9 18 9q14 0 23 -9l104 -104l-57 -473l-88 -84q-9 -12 -19 -12q-14 0 -26 12l-52 53q-12 12 -12 35zM215 193l27 210l186 275l-25 -213zM248 1502q0 10 8 18l51 47q16 24 39 24h590q9 0 25 -24q3 -23 -5 -37l-143 -144h-457l-100 99q-8 7 -8 17zM610 887l27 229l184 256 l-26 -219zM690 186l62 486l106 108q8 9 16.5 9t14.5 -9l45 -43q14 -21 14 -41l-67 -544q-5 -17 -23 -39l-29 -27q-8 -8 -18 -10q-11 3 -18 10zM776 907l60 475l127 125q18 14 30 -4l33 -47q19 -25 6 -57l-59 -471q-7 -41 -25 -56l-47 -51q-8 -8 -20 -8q-9 0 -17 8z" />
<glyph unicode="1" d="M690 186l62 486l106 108q8 9 16.5 9t14.5 -9l45 -43q14 -21 14 -41l-67 -544q-5 -17 -23 -39l-29 -27q-8 -8 -18 -10q-11 3 -18 10zM776 907l60 475l127 125q18 14 30 -4l33 -47q19 -25 6 -57l-59 -471q-7 -41 -25 -56l-47 -51q-8 -8 -20 -8q-9 0 -17 8z" />
<glyph unicode="2" d="M8 145l55 514q6 29 31 48l51 51q10 10 25 10q8 0 20 -10l76 -70l-63 -487l-133 -129q-21 -21 -33 0l-17 28q-12 12 -12 45zM70 6q-8 22 10 43l129 131h461l106 -106q27 -20 -4 -45l-24 -25q-12 -12 -39 -12h-603q-26 0 -36 14zM221 758q-14 14 4 35l99 86h442l63 -58 q11 -7 10.5 -19t-12.5 -22l-88 -88h-448zM248 1502q0 10 8 18l51 47q16 24 39 24h590q9 0 25 -24q3 -23 -5 -37l-143 -144h-457l-100 99q-8 7 -8 17zM776 907l60 475l127 125q18 14 30 -4l33 -47q19 -25 6 -57l-59 -471q-7 -41 -25 -56l-47 -51q-8 -8 -20 -8q-9 0 -17 8z " />
<glyph unicode="3" d="M70 6q-8 22 10 43l129 131h461l106 -106q27 -20 -4 -45l-24 -25q-12 -12 -39 -12h-603q-26 0 -36 14zM221 758q-14 14 4 35l99 86h442l63 -58q11 -7 10.5 -19t-12.5 -22l-88 -88h-448zM248 1502q0 10 8 18l51 47q16 24 39 24h590q9 0 25 -24q3 -23 -5 -37l-143 -144h-457 l-100 99q-8 7 -8 17zM690 186l62 486l106 108q8 9 16.5 9t14.5 -9l45 -43q14 -21 14 -41l-67 -544q-5 -17 -23 -39l-29 -27q-8 -8 -18 -10q-11 3 -18 10zM776 907l60 475l127 125q18 14 30 -4l33 -47q19 -25 6 -57l-59 -471q-7 -41 -25 -56l-47 -51q-8 -8 -20 -8q-9 0 -17 8 z" />
<glyph unicode="4" d="M94 895l64 508q11 32 18 41l27 24q13 9 18 9q14 0 23 -9l104 -104l-57 -473l-88 -84q-9 -12 -19 -12q-14 0 -26 12l-52 53q-12 12 -12 35zM221 758q-14 14 4 35l99 86h442l63 -58q11 -7 10.5 -19t-12.5 -22l-88 -88h-448zM690 186l62 486l106 108q8 9 16.5 9t14.5 -9 l45 -43q14 -21 14 -41l-67 -544q-5 -17 -23 -39l-29 -27q-8 -8 -18 -10q-11 3 -18 10zM776 907l60 475l127 125q18 14 30 -4l33 -47q19 -25 6 -57l-59 -471q-7 -41 -25 -56l-47 -51q-8 -8 -20 -8q-9 0 -17 8z" />
<glyph unicode="5" d="M70 6q-8 22 10 43l129 131h461l106 -106q27 -20 -4 -45l-24 -25q-12 -12 -39 -12h-603q-26 0 -36 14zM94 895l64 508q11 32 18 41l27 24q13 9 18 9q14 0 23 -9l104 -104l-57 -473l-88 -84q-9 -12 -19 -12q-14 0 -26 12l-52 53q-12 12 -12 35zM221 758q-14 14 4 35l99 86 h442l63 -58q11 -7 10.5 -19t-12.5 -22l-88 -88h-448zM248 1502q0 10 8 18l51 47q16 24 39 24h590q9 0 25 -24q3 -23 -5 -37l-143 -144h-457l-100 99q-8 7 -8 17zM690 186l62 486l106 108q8 9 16.5 9t14.5 -9l45 -43q14 -21 14 -41l-67 -544q-5 -17 -23 -39l-29 -27 q-8 -8 -18 -10q-11 3 -18 10z" />
<glyph unicode="6" d="M8 145l55 514q6 29 31 48l51 51q10 10 25 10q8 0 20 -10l76 -70l-63 -487l-133 -129q-21 -21 -33 0l-17 28q-12 12 -12 45zM70 6q-8 22 10 43l129 131h461l106 -106q27 -20 -4 -45l-24 -25q-12 -12 -39 -12h-603q-26 0 -36 14zM94 895l64 508q11 32 18 41l27 24 q13 9 18 9q14 0 23 -9l104 -104l-57 -473l-88 -84q-9 -12 -19 -12q-14 0 -26 12l-52 53q-12 12 -12 35zM221 758q-14 14 4 35l99 86h442l63 -58q11 -7 10.5 -19t-12.5 -22l-88 -88h-448zM248 1502q0 10 8 18l51 47q16 24 39 24h590q9 0 25 -24q3 -23 -5 -37l-143 -144h-457 l-100 99q-8 7 -8 17zM690 186l62 486l106 108q8 9 16.5 9t14.5 -9l45 -43q14 -21 14 -41l-67 -544q-5 -17 -23 -39l-29 -27q-8 -8 -18 -10q-11 3 -18 10z" />
<glyph unicode="7" d="M94 895l64 508q11 32 18 41l27 24q13 9 18 9q14 0 23 -9l104 -104l-57 -473l-88 -84q-9 -12 -19 -12q-14 0 -26 12l-52 53q-12 12 -12 35zM248 1502q0 10 8 18l51 47q16 24 39 24h590q9 0 25 -24q3 -23 -5 -37l-143 -144h-457l-100 99q-8 7 -8 17zM690 186l62 486 l106 108q8 9 16.5 9t14.5 -9l45 -43q14 -21 14 -41l-67 -544q-5 -17 -23 -39l-29 -27q-8 -8 -18 -10q-11 3 -18 10zM776 907l60 475l127 125q18 14 30 -4l33 -47q19 -25 6 -57l-59 -471q-7 -41 -25 -56l-47 -51q-8 -8 -20 -8q-9 0 -17 8z" />
<glyph unicode="8" d="M8 145l55 514q6 29 31 48l51 51q10 10 25 10q8 0 20 -10l76 -70l-63 -487l-133 -129q-21 -21 -33 0l-17 28q-12 12 -12 45zM70 6q-8 22 10 43l129 131h461l106 -106q27 -20 -4 -45l-24 -25q-12 -12 -39 -12h-603q-26 0 -36 14zM94 895l64 508q11 32 18 41l27 24 q13 9 18 9q14 0 23 -9l104 -104l-57 -473l-88 -84q-9 -12 -19 -12q-14 0 -26 12l-52 53q-12 12 -12 35zM221 758q-14 14 4 35l99 86h442l63 -58q11 -7 10.5 -19t-12.5 -22l-88 -88h-448zM248 1502q0 10 8 18l51 47q16 24 39 24h590q9 0 25 -24q3 -23 -5 -37l-143 -144h-457 l-100 99q-8 7 -8 17zM690 186l62 486l106 108q8 9 16.5 9t14.5 -9l45 -43q14 -21 14 -41l-67 -544q-5 -17 -23 -39l-29 -27q-8 -8 -18 -10q-11 3 -18 10zM776 907l60 475l127 125q18 14 30 -4l33 -47q19 -25 6 -57l-59 -471q-7 -41 -25 -56l-47 -51q-8 -8 -20 -8q-9 0 -17 8 z" />
<glyph unicode="9" d="M70 6q-8 22 10 43l129 131h461l106 -106q27 -20 -4 -45l-24 -25q-12 -12 -39 -12h-603q-26 0 -36 14zM94 895l64 508q11 32 18 41l27 24q13 9 18 9q14 0 23 -9l104 -104l-57 -473l-88 -84q-9 -12 -19 -12q-14 0 -26 12l-52 53q-12 12 -12 35zM221 758q-14 14 4 35l99 86 h442l63 -58q11 -7 10.5 -19t-12.5 -22l-88 -88h-448zM248 1502q0 10 8 18l51 47q16 24 39 24h590q9 0 25 -24q3 -23 -5 -37l-143 -144h-457l-100 99q-8 7 -8 17zM690 186l62 486l106 108q8 9 16.5 9t14.5 -9l45 -43q14 -21 14 -41l-67 -544q-5 -17 -23 -39l-29 -27 q-8 -8 -18 -10q-11 3 -18 10zM776 907l60 475l127 125q18 14 30 -4l33 -47q19 -25 6 -57l-59 -471q-7 -41 -25 -56l-47 -51q-8 -8 -20 -8q-9 0 -17 8z" />
<glyph unicode=":" d="M8 145l55 514q6 29 31 48l51 51q10 10 25 10q8 0 20 -10l76 -70l-63 -487l-133 -129q-21 -21 -33 0l-17 28q-12 12 -12 45zM471 887h129l57 485h-131z" />
<glyph unicode=";" d="M215 193l27 210l186 275l-25 -213zM471 887h129l57 485h-131z" />
<glyph unicode="&#x3c;" d="M553 465l123 -272l29 213l-127 272zM610 887l27 229l184 256l-26 -219z" />
<glyph unicode="=" d="M70 6q-8 22 10 43l129 131h461l106 -106q27 -20 -4 -45l-24 -25q-12 -12 -39 -12h-603q-26 0 -36 14zM221 758q-14 14 4 35l99 86h442l63 -58q11 -7 10.5 -19t-12.5 -22l-88 -88h-448z" />
<glyph unicode="&#x3e;" d="M215 193l27 210l186 275l-25 -213zM336 1153l119 -266l28 229l-121 256z" />
<glyph unicode="?" d="M70 6q-8 22 10 43l129 131h461l106 -106q27 -20 -4 -45l-24 -25q-12 -12 -39 -12h-603q-26 0 -36 14zM248 1502q0 10 8 18l51 47q16 24 39 24h590q9 0 25 -24q3 -23 -5 -37l-143 -144h-457l-100 99q-8 7 -8 17zM514 692l23 187h229l63 -58q11 -7 10.5 -19t-12.5 -22 l-88 -88h-225zM776 907l60 475l127 125q18 14 30 -4l33 -47q19 -25 6 -57l-59 -471q-7 -41 -25 -56l-47 -51q-8 -8 -20 -8q-9 0 -17 8z" />
<glyph unicode="@" d="M8 145l55 514q6 29 31 48l51 51q10 10 25 10q8 0 20 -10l76 -70l-63 -487l-133 -129q-21 -21 -33 0l-17 28q-12 12 -12 45zM70 6q-8 22 10 43l129 131h461l106 -106q27 -20 -4 -45l-24 -25q-12 -12 -39 -12h-603q-26 0 -36 14zM94 895l64 508q11 32 18 41l27 24 q13 9 18 9q14 0 23 -9l104 -104l-57 -473l-88 -84q-9 -12 -19 -12q-14 0 -26 12l-52 53q-12 12 -12 35zM215 193l27 210l186 275l-25 -213zM221 758l70 -66h223l23 187h-213l-99 -86q-18 -21 -4 -35zM248 1502q0 10 8 18l51 47q16 24 39 24h590q9 0 25 -24q3 -23 -5 -37 l-143 -144h-457l-100 99q-8 7 -8 17zM336 1153l119 -266l28 229l-121 256zM381 193h129l57 485h-127zM471 887h129l57 485h-131zM514 692l23 187h229l63 -58q11 -7 10.5 -19t-12.5 -22l-88 -88h-225zM553 465l123 -272l29 213l-127 272zM610 887l27 229l184 256l-26 -219z M690 186l62 486l106 108q8 9 16.5 9t14.5 -9l45 -43q14 -21 14 -41l-67 -544q-5 -17 -23 -39l-29 -27q-8 -8 -18 -10q-11 3 -18 10zM776 907l60 475l127 125q18 14 30 -4l33 -47q19 -25 6 -57l-59 -471q-7 -41 -25 -56l-47 -51q-8 -8 -20 -8q-9 0 -17 8z" />
<glyph unicode="A" d="M8 145l55 514q6 29 31 48l51 51q10 10 25 10q8 0 20 -10l76 -70l-63 -487l-133 -129q-10 -10 -18.5 -10t-14.5 10l-17 28q-12 12 -12 45zM94 895l64 508q11 32 18 41l27 24q13 9 18 9q14 0 23 -9l104 -104l-57 -473l-88 -84q-9 -12 -19 -12q-14 0 -26 12l-52 53 q-12 12 -12 35zM221 758q-6 6 -6 14q0 10 10 21l99 86h442l63 -58q11 -7 10.5 -19t-12.5 -22l-88 -88h-448zM248 1502q0 10 8 18l51 47q16 24 39 24h590q9 0 25 -24q3 -23 -5 -37l-143 -144h-457l-100 99q-8 7 -8 17zM690 186l62 486l106 108q8 9 16.5 9t14.5 -9l45 -43 q14 -21 14 -41l-67 -544q-5 -17 -23 -39l-29 -27q-8 -8 -18 -10q-11 3 -18 10zM776 907l60 475l127 125q8 6 15 6q9 0 15 -10l33 -47q11 -15 11 -32q0 -12 -5 -25l-59 -471q-7 -41 -25 -56l-47 -51q-8 -8 -20 -8q-9 0 -17 8z" />
<glyph unicode="B" d="M70 6q-2 7 -2 13q0 15 12 30l129 131h461l106 -106q27 -20 -4 -45l-24 -25q-12 -12 -39 -12h-603q-26 0 -36 14zM248 1502q0 10 8 18l51 47q16 24 39 24h590q9 0 25 -24q3 -23 -5 -37l-143 -144h-457l-100 99q-8 7 -8 17zM381 193h129l57 485h-127zM471 887h129l57 485 h-131zM514 692l23 187h229l63 -58q11 -7 10.5 -19t-12.5 -22l-88 -88h-225zM690 186l62 486l106 108q8 9 16.5 9t14.5 -9l45 -43q14 -21 14 -41l-67 -544q-5 -17 -23 -39l-29 -27q-8 -8 -18 -10q-11 3 -18 10zM776 907l60 475l127 125q8 6 15 6q9 0 15 -10l33 -47 q11 -15 11 -32q0 -12 -5 -25l-59 -471q-7 -41 -25 -56l-47 -51q-8 -8 -20 -8q-9 0 -17 8z" />
<glyph unicode="C" d="M8 145l55 514q6 29 31 48l51 51q10 10 25 10q8 0 20 -10l76 -70l-63 -487l-133 -129q-21 -21 -33 0l-17 28q-12 12 -12 45zM70 6q-2 7 -2 13q0 15 12 30l129 131h461l106 -106q27 -20 -4 -45l-24 -25q-12 -12 -39 -12h-603q-26 0 -36 14zM94 895l64 508q11 32 18 41 l27 24q13 9 18 9q14 0 23 -9l104 -104l-57 -473l-88 -84q-9 -12 -19 -12q-14 0 -26 12l-52 53q-12 12 -12 35zM248 1502q0 10 8 18l51 47q16 24 39 24h590q9 0 25 -24q1 -6 1 -12q0 -15 -6 -25l-143 -144h-457l-100 99q-8 7 -8 17z" />
<glyph unicode="D" d="M70 6q-2 7 -2 13q0 15 12 30l129 131h461l106 -106q27 -20 -4 -45l-24 -25q-12 -12 -39 -12h-603q-26 0 -36 14zM248 1502q0 10 8 18l51 47q16 24 39 24h590q9 0 25 -24q3 -23 -5 -37l-143 -144h-457l-100 99q-8 7 -8 17zM381 193h129l57 485h-127zM471 887h129l57 485 h-131zM690 186l62 486l106 108q8 9 16.5 9t14.5 -9l45 -43q14 -21 14 -41l-67 -544q-5 -17 -23 -39l-29 -27q-8 -8 -18 -10q-11 3 -18 10zM776 907l60 475l127 125q8 6 15 6q9 0 15 -10l33 -47q11 -15 11 -32q0 -12 -5 -25l-59 -471q-7 -41 -25 -56l-47 -51q-8 -8 -20 -8 q-9 0 -17 8z" />
<glyph unicode="E" d="M8 145l55 514q6 29 31 48l51 51q10 10 25 10q8 0 20 -10l76 -70l-63 -487l-133 -129q-21 -21 -33 0l-17 28q-12 12 -12 45zM70 6q-2 7 -2 13q0 15 12 30l129 131h461l106 -106q27 -20 -4 -45l-24 -25q-12 -12 -39 -12h-603q-26 0 -36 14zM94 895l64 508q11 32 18 41 l27 24q13 9 18 9q14 0 23 -9l104 -104l-57 -473l-88 -84q-9 -12 -19 -12q-14 0 -26 12l-52 53q-12 12 -12 35zM221 758q-6 6 -6 14q0 10 10 21l99 86h442l63 -58q11 -7 10.5 -19t-12.5 -22l-88 -88h-448zM248 1502q0 10 8 18l51 47q16 24 39 24h590q9 0 25 -24q1 -6 1 -12 q0 -15 -6 -25l-143 -144h-457l-100 99q-8 7 -8 17z" />
<glyph unicode="F" d="M8 145l55 514q6 29 31 48l51 51q10 10 25 10q8 0 20 -10l76 -70l-63 -487l-133 -129q-10 -10 -18.5 -10t-14.5 10l-17 28q-12 12 -12 45zM94 895l64 508q11 32 18 41l27 24q13 9 18 9q14 0 23 -9l104 -104l-57 -473l-88 -84q-9 -12 -19 -12q-14 0 -26 12l-52 53 q-12 12 -12 35zM221 758q-6 6 -6 14q0 10 10 21l99 86h442l63 -58q11 -7 10.5 -19t-12.5 -22l-88 -88h-448zM248 1502q0 10 8 18l51 47q16 24 39 24h590q9 0 25 -24q1 -6 1 -12q0 -15 -6 -25l-143 -144h-457l-100 99q-8 7 -8 17z" />
<glyph unicode="G" d="M8 145l55 514q6 29 31 48l51 51q10 10 25 10q8 0 20 -10l76 -70l-63 -487l-133 -129q-21 -21 -33 0l-17 28q-12 12 -12 45zM70 6q-2 7 -2 13q0 15 12 30l129 131h461l106 -106q27 -20 -4 -45l-24 -25q-12 -12 -39 -12h-603q-26 0 -36 14zM94 895l64 508q11 32 18 41 l27 24q13 9 18 9q14 0 23 -9l104 -104l-57 -473l-88 -84q-9 -12 -19 -12q-14 0 -26 12l-52 53q-12 12 -12 35zM248 1502q0 10 8 18l51 47q16 24 39 24h590q9 0 25 -24q1 -6 1 -12q0 -15 -6 -25l-143 -144h-457l-100 99q-8 7 -8 17zM514 692l23 187h229l63 -58 q11 -7 10.5 -19t-12.5 -22l-88 -88h-225zM690 186l62 486l106 108q8 9 16.5 9t14.5 -9l45 -43q14 -21 14 -41l-67 -544q-5 -17 -23 -39l-29 -27q-8 -8 -18 -10q-11 3 -18 10z" />
<glyph unicode="H" d="M8 145l55 514q6 29 31 48l51 51q10 10 25 10q8 0 20 -10l76 -70l-63 -487l-133 -129q-10 -10 -18.5 -10t-14.5 10l-17 28q-12 12 -12 45zM94 895l64 508q11 32 18 41l27 24q13 9 18 9q14 0 23 -9l104 -104l-57 -473l-88 -84q-9 -12 -19 -12q-14 0 -26 12l-52 53 q-12 12 -12 35zM221 758q-6 6 -6 14q0 10 10 21l99 86h442l63 -58q11 -7 10.5 -19t-12.5 -22l-88 -88h-448zM690 186l62 486l106 108q8 9 16.5 9t14.5 -9l45 -43q14 -21 14 -41l-67 -544q-5 -17 -23 -39l-29 -27q-8 -8 -18 -10q-11 3 -18 10zM776 907l60 475l127 125 q8 6 15 6q9 0 15 -10l33 -47q11 -15 11 -32q0 -12 -5 -25l-59 -471q-7 -41 -25 -56l-47 -51q-8 -8 -20 -8q-9 0 -17 8z" />
<glyph unicode="I" d="M70 6q-2 7 -2 13q0 15 12 30l129 131h461l106 -106q27 -20 -4 -45l-24 -25q-12 -12 -39 -12h-603q-26 0 -36 14zM248 1502q0 10 8 18l51 47q16 24 39 24h590q9 0 25 -24q1 -6 1 -12q0 -15 -6 -25l-143 -144h-457l-100 99q-8 7 -8 17zM381 193h129l57 485h-127zM471 887 h129l57 485h-131z" />
<glyph unicode="J" d="M8 145l55 514q6 29 31 48l51 51q10 10 25 10q8 0 20 -10l76 -70l-63 -487l-133 -129q-21 -21 -33 0l-17 28q-12 12 -12 45zM70 6q-2 7 -2 13q0 15 12 30l129 131h461l106 -106q27 -20 -4 -45l-24 -25q-12 -12 -39 -12h-603q-26 0 -36 14zM690 186l62 486l106 108 q8 9 16.5 9t14.5 -9l45 -43q14 -21 14 -41l-67 -544q-5 -17 -23 -39l-29 -27q-8 -8 -18 -10q-11 3 -18 10zM776 907l60 475l127 125q8 6 15 6q8 0 15 -10l33 -47q11 -15 11 -32q0 -12 -5 -25l-59 -471q-7 -41 -25 -56l-47 -51q-8 -8 -20 -8q-9 0 -17 8z" />
<glyph unicode="K" d="M8 145l55 514q6 29 31 48l51 51q10 10 25 10q8 0 20 -10l76 -70l-63 -487l-133 -129q-10 -10 -18.5 -10t-14.5 10l-17 28q-12 12 -12 45zM94 895l64 508q11 32 18 41l27 24q13 9 18 9q14 0 23 -9l104 -104l-57 -473l-88 -84q-9 -12 -19 -12q-14 0 -26 12l-52 53 q-12 12 -12 35zM221 758l70 -66h223l23 187h-213l-99 -86q-10 -12 -10 -21q0 -8 6 -14zM553 465l123 -272l29 213l-127 272zM610 887l27 229l184 256l-26 -219z" />
<glyph unicode="L" d="M8 145l55 514q6 29 31 48l51 51q10 10 25 10q8 0 20 -10l76 -70l-63 -487l-133 -129q-21 -21 -33 0l-17 28q-12 12 -12 45zM70 6q-2 7 -2 13q0 15 12 30l129 131h461l106 -106q13 -9 13 -20q0 -12 -17 -25l-24 -25q-12 -12 -39 -12h-603q-26 0 -36 14zM94 895l64 508 q11 32 18 41l27 24q13 9 18 9q14 0 23 -9l104 -104l-57 -473l-88 -84q-9 -12 -19 -12q-14 0 -26 12l-52 53q-12 12 -12 35z" />
<glyph unicode="M" d="M8 145l55 514q6 29 31 48l51 51q10 10 25 10q8 0 20 -10l76 -70l-63 -487l-133 -129q-10 -10 -18.5 -10t-14.5 10l-17 28q-12 12 -12 45zM94 895l64 508q11 32 18 41l27 24q13 9 18 9q14 0 23 -9l104 -104l-57 -473l-88 -84q-9 -12 -19 -12q-14 0 -26 12l-52 53 q-12 12 -12 35zM336 1153l119 -266l28 229l-121 256zM610 887l27 229l184 256l-26 -219zM690 186l62 486l106 108q8 9 16.5 9t14.5 -9l45 -43q14 -21 14 -41l-67 -544q-5 -17 -23 -39l-29 -27q-8 -8 -18 -10q-11 3 -18 10zM776 907l60 475l127 125q8 6 15 6q9 0 15 -10 l33 -47q11 -15 11 -32q0 -12 -5 -25l-59 -471q-7 -41 -25 -56l-47 -51q-8 -8 -20 -8q-9 0 -17 8z" />
<glyph unicode="N" d="M8 145l55 514q6 29 31 48l51 51q10 10 25 10q8 0 20 -10l76 -70l-63 -487l-133 -129q-10 -10 -18.5 -10t-14.5 10l-17 28q-12 12 -12 45zM94 895l64 508q11 32 18 41l27 24q13 9 18 9q14 0 23 -9l104 -104l-57 -473l-88 -84q-9 -12 -19 -12q-14 0 -26 12l-52 53 q-12 12 -12 35zM336 1153l119 -266l28 229l-121 256zM553 465l123 -272l29 213l-127 272zM690 186l62 486l106 108q8 9 16.5 9t14.5 -9l45 -43q14 -21 14 -41l-67 -544q-5 -17 -23 -39l-29 -27q-8 -8 -18 -10q-11 3 -18 10zM776 907l60 475l127 125q8 6 15 6q9 0 15 -10 l33 -47q11 -15 11 -32q0 -12 -5 -25l-59 -471q-7 -41 -25 -56l-47 -51q-8 -8 -20 -8q-9 0 -17 8z" />
<glyph unicode="O" d="M8 145l55 514q6 29 31 48l51 51q10 10 25 10q8 0 20 -10l76 -70l-63 -487l-133 -129q-21 -21 -33 0l-17 28q-12 12 -12 45zM70 6q-2 7 -2 13q0 15 12 30l129 131h461l106 -106q27 -20 -4 -45l-24 -25q-12 -12 -39 -12h-603q-26 0 -36 14zM94 895l64 508q11 32 18 41 l27 24q13 9 18 9q14 0 23 -9l104 -104l-57 -473l-88 -84q-9 -12 -19 -12q-14 0 -26 12l-52 53q-12 12 -12 35zM248 1502q0 10 8 18l51 47q16 24 39 24h590q9 0 25 -24q3 -23 -5 -37l-143 -144h-457l-100 99q-8 7 -8 17zM690 186l62 486l106 108q8 9 16.5 9t14.5 -9l45 -43 q14 -21 14 -41l-67 -544q-5 -17 -23 -39l-29 -27q-8 -8 -18 -10q-11 3 -18 10zM776 907l60 475l127 125q8 6 15 6q9 0 15 -10l33 -47q11 -15 11 -32q0 -12 -5 -25l-59 -471q-7 -41 -25 -56l-47 -51q-8 -8 -20 -8q-9 0 -17 8z" />
<glyph unicode="P" d="M8 145l55 514q6 29 31 48l51 51q10 10 25 10q8 0 20 -10l76 -70l-63 -487l-133 -129q-10 -10 -18.5 -10t-14.5 10l-17 28q-12 12 -12 45zM94 895l64 508q11 32 18 41l27 24q13 9 18 9q14 0 23 -9l104 -104l-57 -473l-88 -84q-9 -12 -19 -12q-14 0 -26 12l-52 53 q-12 12 -12 35zM221 758q-6 6 -6 14q0 10 10 21l99 86h442l63 -58q11 -7 10.5 -19t-12.5 -22l-88 -88h-448zM248 1502q0 10 8 18l51 47q16 24 39 24h590q9 0 25 -24q3 -23 -5 -37l-143 -144h-457l-100 99q-8 7 -8 17zM776 907l60 475l127 125q8 6 15 6q9 0 15 -10l33 -47 q11 -15 11 -32q0 -12 -5 -25l-59 -471q-7 -41 -25 -56l-47 -51q-8 -8 -20 -8q-9 0 -17 8z" />
<glyph unicode="Q" d="M8 145l55 514q6 29 31 48l51 51q10 10 25 10q8 0 20 -10l76 -70l-63 -487l-133 -129q-21 -21 -33 0l-17 28q-12 12 -12 45zM70 6q-2 7 -2 13q0 15 12 30l129 131h461l106 -106q27 -20 -4 -45l-24 -25q-12 -12 -39 -12h-603q-26 0 -36 14zM94 895l64 508q11 32 18 41 l27 24q13 9 18 9q14 0 23 -9l104 -104l-57 -473l-88 -84q-9 -12 -19 -12q-14 0 -26 12l-52 53q-12 12 -12 35zM248 1502q0 10 8 18l51 47q16 24 39 24h590q9 0 25 -24q3 -23 -5 -37l-143 -144h-457l-100 99q-8 7 -8 17zM381 193h129l57 485h-127zM553 465l123 -272l29 213 l-127 272zM690 186l62 486l106 108q8 9 16.5 9t14.5 -9l45 -43q14 -21 14 -41l-67 -544q-5 -17 -23 -39l-29 -27q-8 -8 -18 -10q-11 3 -18 10zM776 907l60 475l127 125q8 6 15 6q8 0 15 -10l33 -47q11 -15 11 -32q0 -12 -5 -25l-59 -471q-7 -41 -25 -56l-47 -51 q-8 -8 -20 -8q-9 0 -17 8z" />
<glyph unicode="R" d="M8 145l55 514q6 29 31 48l51 51q10 10 25 10q8 0 20 -10l76 -70l-63 -487l-133 -129q-10 -10 -18.5 -10t-14.5 10l-17 28q-12 12 -12 45zM94 895l64 508q11 32 18 41l27 24q13 9 18 9q14 0 23 -9l104 -104l-57 -473l-88 -84q-9 -12 -19 -12q-14 0 -26 12l-52 53 q-12 12 -12 35zM221 758q-6 6 -6 14q0 10 10 21l99 86h442l63 -58q11 -7 10.5 -19t-12.5 -22l-88 -88h-448zM248 1502q0 10 8 18l51 47q16 24 39 24h590q9 0 25 -24q3 -23 -5 -37l-143 -144h-457l-100 99q-8 7 -8 17zM553 465l25 213l127 -272l-29 -213zM776 907l60 475 l127 125q8 6 15 6q9 0 15 -10l33 -47q11 -15 11 -32q0 -12 -5 -25l-59 -471q-7 -41 -25 -56l-47 -51q-8 -8 -20 -8q-9 0 -17 8z" />
<glyph unicode="S" d="M70 6q-2 7 -2 13q0 15 12 30l129 131h461l106 -106q27 -20 -4 -45l-24 -25q-12 -12 -39 -12h-603q-26 0 -36 14zM94 895l64 508q11 32 18 41l27 24q13 9 18 9q14 0 23 -9l104 -104l-57 -473l-88 -84q-9 -12 -19 -12q-14 0 -26 12l-52 53q-12 12 -12 35zM221 758 q-6 6 -6 14q0 10 10 21l99 86h442l63 -58q11 -7 10.5 -19t-12.5 -22l-88 -88h-448zM248 1502q0 10 8 18l51 47q16 24 39 24h590q9 0 25 -24q1 -6 1 -12q0 -15 -6 -25l-143 -144h-457l-100 99q-8 7 -8 17zM690 186l62 486l106 108q8 9 16.5 9t14.5 -9l45 -43q14 -21 14 -41 l-67 -544q-5 -17 -23 -39l-29 -27q-8 -8 -18 -10q-11 3 -18 10z" />
<glyph unicode="T" d="M248 1502q0 10 8 18l51 47q16 24 39 24h590q9 0 25 -24q1 -6 1 -12q0 -15 -6 -25l-143 -144h-457l-100 99q-8 7 -8 17zM381 193h129l57 485h-127zM471 887h129l57 485h-131z" />
<glyph unicode="U" d="M8 145l55 514q6 29 31 48l51 51q10 10 25 10q8 0 20 -10l76 -70l-63 -487l-133 -129q-21 -21 -33 0l-17 28q-12 12 -12 45zM70 6q-2 7 -2 13q0 15 12 30l129 131h461l106 -106q27 -20 -4 -45l-24 -25q-12 -12 -39 -12h-603q-26 0 -36 14zM94 895l64 508q11 32 18 41 l27 24q13 9 18 9q14 0 23 -9l104 -104l-57 -473l-88 -84q-9 -12 -19 -12q-14 0 -26 12l-52 53q-12 12 -12 35zM690 186l62 486l106 108q8 9 16.5 9t14.5 -9l45 -43q14 -21 14 -41l-67 -544q-5 -17 -23 -39l-29 -27q-8 -8 -18 -10q-11 3 -18 10zM776 907l60 475l127 125 q8 6 15 6q9 0 15 -10l33 -47q11 -15 11 -32q0 -12 -5 -25l-59 -471q-7 -41 -25 -56l-47 -51q-8 -8 -20 -8q-9 0 -17 8z" />
<glyph unicode="V" d="M8 145l55 514q6 29 31 48l51 51q10 10 25 10q8 0 20 -10l76 -70l-63 -487l-133 -129q-10 -10 -18.5 -10t-14.5 10l-17 28q-12 12 -12 45zM94 895l64 508q11 32 18 41l27 24q13 9 18 9q14 0 23 -9l104 -104l-57 -473l-88 -84q-9 -12 -19 -12q-14 0 -26 12l-52 53 q-12 12 -12 35zM215 193l27 210l186 275l-25 -213zM610 887l27 229l184 256l-26 -219z" />
<glyph unicode="W" d="M8 145l55 514q6 29 31 48l51 51q10 10 25 10q8 0 20 -10l76 -70l-63 -487l-133 -129q-10 -10 -18.5 -10t-14.5 10l-17 28q-12 12 -12 45zM94 895l64 508q11 32 18 41l27 24q13 9 18 9q14 0 23 -9l104 -104l-57 -473l-88 -84q-9 -12 -19 -12q-14 0 -26 12l-52 53 q-12 12 -12 35zM215 193l27 210l186 275l-25 -213zM553 465l123 -272l29 213l-127 272zM690 186l62 486l106 108q8 9 16.5 9t14.5 -9l45 -43q14 -21 14 -41l-67 -544q-5 -17 -23 -39l-29 -27q-8 -8 -18 -10q-11 3 -18 10zM776 907l60 475l127 125q8 6 15 6q9 0 15 -10 l33 -47q11 -15 11 -32q0 -12 -5 -25l-59 -471q-7 -41 -25 -56l-47 -51q-8 -8 -20 -8q-9 0 -17 8z" />
<glyph unicode="X" d="M215 193l27 210l186 275l-25 -213zM336 1153l119 -266l28 229l-121 256zM553 465l123 -272l29 213l-127 272zM610 887l27 229l184 256l-26 -219z" />
<glyph unicode="Y" d="M336 1153l119 -266l28 229l-121 256zM381 193h129l57 485h-127zM610 887l27 229l184 256l-26 -219z" />
<glyph unicode="Z" d="M70 6q-2 7 -2 13q0 15 12 30l129 131h461l106 -106q27 -20 -4 -45l-24 -25q-12 -12 -39 -12h-603q-26 0 -36 14zM215 193l27 210l186 275l-25 -213zM248 1502q0 10 8 18l51 47q16 24 39 24h590q9 0 25 -24q1 -6 1 -12q0 -15 -6 -25l-143 -144h-457l-100 99q-8 7 -8 17z M610 887l27 229l184 256l-26 -219z" />
<glyph unicode="[" d="M8 145l55 514q6 29 31 48l51 51q10 10 25 10q8 0 20 -10l76 -70l-63 -487l-133 -129q-21 -21 -33 0l-17 28q-12 12 -12 45zM70 6q-8 22 10 43l129 131h461l106 -106q27 -20 -4 -45l-24 -25q-12 -12 -39 -12h-603q-26 0 -36 14zM94 895l64 508q11 32 18 41l27 24 q13 9 18 9q14 0 23 -9l104 -104l-57 -473l-88 -84q-9 -12 -19 -12q-14 0 -26 12l-52 53q-12 12 -12 35zM248 1502q0 10 8 18l51 47q16 24 39 24h590q9 0 25 -24q3 -23 -5 -37l-143 -144h-457l-100 99q-8 7 -8 17zM553 465l123 -272l29 213l-127 272zM610 887l27 229l184 256 l-26 -219z" />
<glyph unicode="\" d="M336 1153l119 -266l28 229l-121 256zM553 465l123 -272l29 213l-127 272z" />
<glyph unicode="]" d="M70 6q-8 22 10 43l129 131h461l106 -106q27 -20 -4 -45l-24 -25q-12 -12 -39 -12h-603q-26 0 -36 14zM215 193l27 210l186 275l-25 -213zM248 1502q0 10 8 18l51 47q16 24 39 24h590q9 0 25 -24q3 -23 -5 -37l-143 -144h-457l-100 99q-8 7 -8 17zM336 1153l119 -266 l28 229l-121 256zM690 186l62 486l106 108q8 9 16.5 9t14.5 -9l45 -43q14 -21 14 -41l-67 -544q-5 -17 -23 -39l-29 -27q-8 -8 -18 -10q-11 3 -18 10zM776 907l60 475l127 125q18 14 30 -4l33 -47q19 -25 6 -57l-59 -471q-7 -41 -25 -56l-47 -51q-8 -8 -20 -8q-9 0 -17 8z " />
<glyph unicode="^" d="M94 895l64 508q11 32 18 41l27 24q13 9 18 9q14 0 23 -9l104 -104l-57 -473l-88 -84q-9 -12 -19 -12q-14 0 -26 12l-52 53q-12 12 -12 35zM248 1502q0 10 8 18l51 47q16 24 39 24h590q9 0 25 -24q3 -23 -5 -37l-143 -144h-457l-100 99q-8 7 -8 17zM776 907l60 475 l127 125q18 14 30 -4l33 -47q19 -25 6 -57l-59 -471q-7 -41 -25 -56l-47 -51q-8 -8 -20 -8q-9 0 -17 8z" />
<glyph unicode="_" d="M70 6q-8 22 10 43l129 131h461l106 -106q27 -20 -4 -45l-24 -25q-12 -12 -39 -12h-603q-26 0 -36 14z" />
<glyph unicode="`" d="M336 1153l119 -266l28 229l-121 256z" />
<glyph unicode="a" d="M8 145l55 514q6 29 31 48l51 51q10 10 25 10q8 0 20 -10l76 -70l-63 -487l-133 -129q-21 -21 -33 0l-17 28q-12 12 -12 45zM70 6q-2 7 -2 13q0 15 12 30l129 131h461l106 -106q13 -9 13 -20q0 -12 -17 -25l-24 -25q-12 -12 -39 -12h-603q-26 0 -36 14zM221 758l70 -66 h223l23 187h-213l-99 -86q-10 -12 -10 -21q0 -8 6 -14zM381 193h129l57 485h-127z" />
<glyph unicode="b" d="M8 145l55 514q6 29 31 48l51 51q10 10 25 10q8 0 20 -10l76 -70l-63 -487l-133 -129q-21 -21 -33 0l-17 28q-12 12 -12 45zM70 6q-2 7 -2 13q0 15 12 30l129 131h461l106 -106q27 -20 -4 -45l-24 -25q-12 -12 -39 -12h-603q-26 0 -36 14zM94 895l64 508q11 32 18 41 l27 24q13 9 18 9q14 0 23 -9l104 -104l-57 -473l-88 -84q-9 -12 -19 -12q-14 0 -26 12l-52 53q-12 12 -12 35zM221 758q-6 6 -6 14q0 10 10 21l99 86h442l63 -58q11 -7 10.5 -19t-12.5 -22l-88 -88h-448zM690 186l62 486l106 108q8 9 16.5 9t14.5 -9l45 -43q14 -21 14 -41 l-67 -544q-5 -17 -23 -39l-29 -27q-8 -8 -18 -10q-11 3 -18 10z" />
<glyph unicode="c" d="M8 145l55 514q6 29 31 48l51 51q10 10 25 10q8 0 20 -10l76 -70l-63 -487l-133 -129q-21 -21 -33 0l-17 28q-12 12 -12 45zM70 6q-2 7 -2 13q0 15 12 30l129 131h461l106 -106q27 -20 -4 -45l-24 -25q-12 -12 -39 -12h-603q-26 0 -36 14zM221 758q-6 6 -6 14q0 10 10 21 l99 86h442l63 -58q11 -7 11 -18q0 -13 -13 -23l-88 -88h-448z" />
<glyph unicode="d" d="M8 145l55 514q6 29 31 48l51 51q10 10 25 10q8 0 20 -10l76 -70l-63 -487l-133 -129q-21 -21 -33 0l-17 28q-12 12 -12 45zM70 6q-2 7 -2 13q0 15 12 30l129 131h461l106 -106q27 -20 -4 -45l-24 -25q-12 -12 -39 -12h-603q-26 0 -36 14zM221 758q-6 6 -6 14q0 10 10 21 l99 86h442l63 -58q11 -7 10.5 -19t-12.5 -22l-88 -88h-448zM690 186l62 486l106 108q8 9 16.5 9t14.5 -9l45 -43q14 -21 14 -41l-67 -544q-5 -17 -23 -39l-29 -27q-8 -8 -18 -10q-11 3 -18 10zM776 907l60 475l127 125q8 6 15 6q9 0 15 -10l33 -47q11 -15 11 -32 q0 -12 -5 -25l-59 -471q-7 -41 -25 -56l-47 -51q-8 -8 -20 -8q-9 0 -17 8z" />
<glyph unicode="e" d="M8 145l55 514q6 29 31 48l51 51q10 10 25 10q8 0 20 -10l76 -70l-63 -487l-133 -129q-21 -21 -33 0l-17 28q-12 12 -12 45zM70 6q-2 7 -2 13q0 15 12 30l129 131h461l106 -106q13 -9 13 -20q0 -12 -17 -25l-24 -25q-12 -12 -39 -12h-603q-26 0 -36 14zM215 193l27 210 l186 275l-25 -213zM221 758l70 -66h223l23 187h-213l-99 -86q-10 -12 -10 -21q0 -8 6 -14z" />
<glyph unicode="f" d="M221 758q-6 6 -6 14q0 9 10 21l99 86h442l63 -58q11 -7 11 -18q0 -13 -13 -23l-88 -88h-448zM381 193l59 485h127l-57 -485h-129zM610 887l27 229l184 256l-26 -219z" />
<glyph unicode="g" d="M70 6q-2 7 -2 13q0 15 12 30l129 131h461l106 -106q27 -20 -4 -45l-24 -25q-12 -12 -39 -12h-603q-26 0 -36 14zM553 465l123 -272l29 213l-127 272zM610 887l27 229l184 256l-26 -219zM690 186l62 486l106 108q8 9 16.5 9t14.5 -9l45 -43q14 -21 14 -41l-67 -544 q-5 -17 -23 -39l-29 -27q-8 -8 -18 -10q-11 3 -18 10zM776 907l60 475l127 125q8 6 15 6q8 0 15 -10l33 -47q11 -15 11 -32q0 -12 -5 -25l-59 -471q-7 -41 -25 -56l-47 -51q-8 -8 -20 -8q-9 0 -17 8z" />
<glyph unicode="h" d="M8 145l55 514q6 29 31 48l51 51q10 10 25 10q8 0 20 -10l76 -70l-63 -487l-133 -129q-10 -10 -18.5 -10t-14.5 10l-17 28q-12 12 -12 45zM94 895l64 508q11 32 18 41l27 24q13 9 18 9q14 0 23 -9l104 -104l-57 -473l-88 -84q-9 -12 -19 -12q-14 0 -26 12l-52 53 q-12 12 -12 35zM221 758q-6 6 -6 14q0 10 10 21l99 86h442l63 -58q11 -7 10.5 -19t-12.5 -22l-88 -88h-448zM690 186l62 486l106 108q8 9 16.5 9t14.5 -9l45 -43q14 -21 14 -41l-67 -544q-5 -17 -23 -39l-29 -27q-8 -8 -18 -10q-11 3 -18 10z" />
<glyph unicode="i" d="M70 6q-2 7 -2 13q0 15 12 30l129 131h461l106 -106q27 -20 -4 -45l-24 -25q-12 -12 -39 -12h-603q-26 0 -36 14zM221 758l70 -66h223l23 187h-213l-99 -86q-10 -12 -10 -21q0 -8 6 -14zM248 1502q0 10 8 18l51 47q16 24 39 24h590q9 0 25 -24q1 -6 1 -12q0 -15 -6 -25 l-143 -144h-457l-100 99q-8 7 -8 17zM381 193h129l57 485h-127z" />
<glyph unicode="j" d="M70 6q-2 7 -2 13q0 15 12 30l129 131h461l106 -106q27 -20 -4 -45l-24 -25q-12 -12 -39 -12h-603q-26 0 -36 14zM248 1502q0 10 8 18l51 47q16 24 39 24h590q9 0 25 -24q1 -6 1 -12q0 -15 -6 -25l-143 -144h-457l-100 99q-8 7 -8 17zM690 186l62 486l106 108q8 9 16.5 9 t14.5 -9l45 -43q14 -21 14 -41l-67 -544q-5 -17 -23 -39l-29 -27q-8 -8 -18 -10q-11 3 -18 10z" />
<glyph unicode="k" d="M8 145l55 514q6 29 31 48l51 51q10 10 25 10q8 0 20 -10l76 -70l-63 -487l-133 -129q-10 -10 -18.5 -10t-14.5 10l-17 28q-12 12 -12 45zM94 895l64 508q11 32 18 41l27 24q13 9 18 9q14 0 23 -9l104 -104l-57 -473l-88 -84q-9 -12 -19 -12q-14 0 -26 12l-52 53 q-12 12 -12 35zM221 758q-6 6 -6 14q0 10 10 21l99 86h442l63 -58q11 -7 11 -18q0 -13 -13 -23l-88 -88h-448zM553 465l25 213l127 -272l-29 -213z" />
<glyph unicode="l" d="M471 887h129l57 485h-131zM553 465l123 -272l29 213l-127 272z" />
<glyph unicode="m" d="M8 145l55 514q6 29 31 48l51 51q10 10 25 10q8 0 20 -10l76 -70l-63 -487l-133 -129q-10 -10 -18.5 -10t-14.5 10l-17 28q-12 12 -12 45zM221 758q-6 6 -6 14q0 10 10 21l99 86h442l63 -58q11 -7 10.5 -19t-12.5 -22l-88 -88h-448zM381 193l59 485h127l-57 -485h-129z M690 186l62 486l106 108q8 9 16.5 9t14.5 -9l45 -43q14 -21 14 -41l-67 -544q-5 -17 -23 -39l-29 -27q-8 -8 -18 -10q-11 3 -18 10z" />
<glyph unicode="n" d="M8 145l55 514q6 29 31 48l51 51q10 10 25 10q8 0 20 -10l76 -70l-63 -487l-133 -129q-10 -10 -18.5 -10t-14.5 10l-17 28q-12 12 -12 45zM221 758q-6 6 -6 14q0 10 10 21l99 86h442l63 -58q11 -7 10.5 -19t-12.5 -22l-88 -88h-448zM690 186l62 486l106 108q8 9 16.5 9 t14.5 -9l45 -43q14 -21 14 -41l-67 -544q-5 -17 -23 -39l-29 -27q-8 -8 -18 -10q-11 3 -18 10z" />
<glyph unicode="o" d="M8 145l55 514q6 29 31 48l51 51q10 10 25 10q8 0 20 -10l76 -70l-63 -487l-133 -129q-21 -21 -33 0l-17 28q-12 12 -12 45zM70 6q-2 7 -2 13q0 15 12 30l129 131h461l106 -106q27 -20 -4 -45l-24 -25q-12 -12 -39 -12h-603q-26 0 -36 14zM221 758q-6 6 -6 14q0 10 10 21 l99 86h442l63 -58q11 -7 10.5 -19t-12.5 -22l-88 -88h-448zM690 186l62 486l106 108q8 9 16.5 9t14.5 -9l45 -43q14 -21 14 -41l-67 -544q-5 -17 -23 -39l-29 -27q-8 -8 -18 -10q-11 3 -18 10z" />
<glyph unicode="p" d="M8 145l55 514q6 29 31 48l51 51q10 10 25 10q8 0 20 -10l76 -70l-63 -487l-133 -129q-10 -10 -18.5 -10t-14.5 10l-17 28q-12 12 -12 45zM215 193l27 210l186 275l-25 -213zM221 758l70 -66h223l23 187h-213l-99 -86q-10 -12 -10 -21q0 -8 6 -14z" />
<glyph unicode="q" d="M514 692l23 187h229l63 -58q11 -7 10.5 -19t-12.5 -22l-88 -88h-225zM553 465l123 -272l29 213l-127 272zM690 186l62 486l106 108q8 9 16.5 9t14.5 -9l45 -43q14 -21 14 -41l-67 -544q-5 -17 -23 -39l-29 -27q-8 -8 -18 -10q-11 3 -18 10z" />
<glyph unicode="r" d="M8 145l55 514q6 29 31 48l51 51q10 10 25 10q8 0 20 -10l76 -70l-63 -487l-133 -129q-10 -10 -18.5 -10t-14.5 10l-17 28q-12 12 -12 45zM221 758q-6 6 -6 14q0 10 10 21l99 86h442l63 -58q11 -7 11 -18q0 -13 -13 -23l-88 -88h-448z" />
<glyph unicode="s" d="M70 6q-2 7 -2 13q0 15 12 30l129 131h461l106 -106q27 -20 -4 -45l-24 -25q-12 -12 -39 -12h-603q-26 0 -36 14zM514 692l23 187h229l63 -58q11 -7 11 -18q0 -13 -13 -23l-88 -88h-225zM553 465l123 -272l29 213l-127 272z" />
<glyph unicode="t" d="M8 145l55 514q6 29 31 48l51 51q10 10 25 10q8 0 20 -10l76 -70l-63 -487l-133 -129q-21 -21 -33 0l-17 28q-12 12 -12 45zM70 6q-2 7 -2 13q0 15 12 30l129 131h461l106 -106q27 -20 -4 -45l-24 -25q-12 -12 -39 -12h-603q-26 0 -36 14zM94 895l64 508q11 32 18 41 l27 24q13 9 18 9q14 0 23 -9l104 -104l-57 -473l-88 -84q-9 -12 -19 -12q-14 0 -26 12l-52 53q-12 12 -12 35zM221 758q-6 6 -6 14q0 10 10 21l99 86h442l63 -58q11 -7 11 -18q0 -13 -13 -23l-88 -88h-448z" />
<glyph unicode="u" d="M8 145l55 514q6 29 31 48l51 51q10 10 25 10q8 0 20 -10l76 -70l-63 -487l-133 -129q-21 -21 -33 0l-17 28q-12 12 -12 45zM70 6q-2 7 -2 13q0 15 12 30l129 131h461l106 -106q27 -20 -4 -45l-24 -25q-12 -12 -39 -12h-603q-26 0 -36 14zM690 186l62 486l106 108 q8 9 16.5 9t14.5 -9l45 -43q14 -21 14 -41l-67 -544q-5 -17 -23 -39l-29 -27q-8 -8 -18 -10q-11 3 -18 10z" />
<glyph unicode="v" d="M8 145l55 514q6 29 31 48l51 51q10 10 25 10q8 0 20 -10l76 -70l-63 -487l-133 -129q-10 -10 -18.5 -10t-14.5 10l-17 28q-12 12 -12 45zM215 193l27 210l186 275l-25 -213z" />
<glyph unicode="w" d="M8 145l55 514q6 29 31 48l51 51q10 10 25 10q8 0 20 -10l76 -70l-63 -487l-133 -129q-10 -10 -18.5 -10t-14.5 10l-17 28q-12 12 -12 45zM215 193l27 210l186 275l-25 -213zM553 465l123 -272l29 213l-127 272zM690 186l62 486l106 108q8 9 16.5 9t14.5 -9l45 -43 q14 -21 14 -41l-67 -544q-5 -17 -23 -39l-29 -27q-8 -8 -18 -10q-11 3 -18 10z" />
<glyph unicode="x" d="M215 193l27 210l186 275l-25 -213zM221 758q-6 6 -6 14q0 10 10 21l99 86h442l63 -58q11 -7 11 -18q0 -13 -13 -23l-88 -88h-448zM553 465l25 213l127 -272l-29 -213z" />
<glyph unicode="y" d="M70 6q-2 7 -2 13q0 15 12 30l129 131h461l106 -106q27 -20 -4 -45l-24 -25q-12 -12 -39 -12h-603q-26 0 -36 14zM553 465l123 -272l29 213l-127 272zM690 186l62 486l106 108q8 9 16.5 9t14.5 -9l45 -43q14 -21 14 -41l-67 -544q-5 -17 -23 -39l-29 -27q-8 -8 -18 -10 q-11 3 -18 10z" />
<glyph unicode="z" d="M70 6q-2 7 -2 13q0 15 12 30l129 131h461l106 -106q27 -20 -4 -45l-24 -25q-12 -12 -39 -12h-603q-26 0 -36 14zM215 193l27 210l186 275l-25 -213zM221 758q-6 6 -6 14q0 10 10 21l99 86h442l63 -58q11 -7 11 -18q0 -13 -13 -23l-88 -88h-448z" />
<glyph unicode="{" d="M514 692l23 187h229l63 -58q11 -7 10.5 -19t-12.5 -22l-88 -88h-225zM553 465l123 -272l29 213l-127 272zM610 887l27 229l184 256l-26 -219zM690 186l62 486l106 108q8 9 16.5 9t14.5 -9l45 -43q14 -21 14 -41l-67 -544q-5 -17 -23 -39l-29 -27q-8 -8 -18 -10 q-11 3 -18 10zM776 907l60 475l127 125q18 14 30 -4l33 -47q19 -25 6 -57l-59 -471q-7 -41 -25 -56l-47 -51q-8 -8 -20 -8q-9 0 -17 8z" />
<glyph unicode="|" d="M381 193h129l57 485h-127zM471 887h129l57 485h-131z" />
<glyph unicode="}" d="M8 145l55 514q6 29 31 48l51 51q10 10 25 10q8 0 20 -10l76 -70l-63 -487l-133 -129q-21 -21 -33 0l-17 28q-12 12 -12 45zM94 895l64 508q11 32 18 41l27 24q13 9 18 9q14 0 23 -9l104 -104l-57 -473l-88 -84q-9 -12 -19 -12q-14 0 -26 12l-52 53q-12 12 -12 35z M215 193l27 210l186 275l-25 -213zM221 758l70 -66h223l23 187h-213l-99 -86q-18 -21 -4 -35zM336 1153l119 -266l28 229l-121 256z" />
<glyph unicode="~" d="M248 1502q0 10 8 18l51 47q16 24 39 24h590q9 0 25 -24q3 -23 -5 -37l-143 -144h-457l-100 99q-8 7 -8 17z" />
<glyph unicode="&#xa0;" />
<glyph unicode="&#xa1;" />
<glyph unicode="&#xa2;" />
<glyph unicode="&#xa3;" />
<glyph unicode="&#xa4;" />
<glyph unicode="&#xa5;" />
<glyph unicode="&#xa6;" />
<glyph unicode="&#xa7;" />
<glyph unicode="&#xa8;" />
<glyph unicode="&#xa9;" />
<glyph unicode="&#xaa;" />
<glyph unicode="&#xab;" />
<glyph unicode="&#xac;" />
<glyph unicode="&#xad;" />
<glyph unicode="&#xae;" />
<glyph unicode="&#xaf;" />
<glyph unicode="&#xb0;" />
<glyph unicode="&#xb1;" />
<glyph unicode="&#xb2;" />
<glyph unicode="&#xb3;" />
<glyph unicode="&#xb4;" />
<glyph unicode="&#xb5;" />
<glyph unicode="&#xb6;" />
<glyph unicode="&#xb7;" />
<glyph unicode="&#xb8;" />
<glyph unicode="&#xb9;" />
<glyph unicode="&#xba;" />
<glyph unicode="&#xbb;" />
<glyph unicode="&#xbc;" />
<glyph unicode="&#xbd;" />
<glyph unicode="&#xbe;" />
<glyph unicode="&#xbf;" />
<glyph unicode="&#xc0;" />
<glyph unicode="&#xc1;" />
<glyph unicode="&#xc2;" />
<glyph unicode="&#xc3;" />
<glyph unicode="&#xc4;" />
<glyph unicode="&#xc5;" />
<glyph unicode="&#xc6;" />
<glyph unicode="&#xc7;" />
<glyph unicode="&#xc8;" />
<glyph unicode="&#xc9;" />
<glyph unicode="&#xca;" />
<glyph unicode="&#xcb;" />
<glyph unicode="&#xcc;" />
<glyph unicode="&#xcd;" />
<glyph unicode="&#xce;" />
<glyph unicode="&#xcf;" />
<glyph unicode="&#xd0;" />
<glyph unicode="&#xd1;" />
<glyph unicode="&#xd2;" />
<glyph unicode="&#xd3;" />
<glyph unicode="&#xd4;" />
<glyph unicode="&#xd5;" />
<glyph unicode="&#xd6;" />
<glyph unicode="&#xd7;" />
<glyph unicode="&#xd8;" />
<glyph unicode="&#xd9;" />
<glyph unicode="&#xda;" />
<glyph unicode="&#xdb;" />
<glyph unicode="&#xdc;" />
<glyph unicode="&#xdd;" />
<glyph unicode="&#xde;" />
<glyph unicode="&#xdf;" />
<glyph unicode="&#xe0;" />
<glyph unicode="&#xe1;" />
<glyph unicode="&#xe2;" />
<glyph unicode="&#xe3;" />
<glyph unicode="&#xe4;" />
<glyph unicode="&#xe5;" />
<glyph unicode="&#xe6;" />
<glyph unicode="&#xe7;" />
<glyph unicode="&#xe8;" />
<glyph unicode="&#xe9;" />
<glyph unicode="&#xea;" />
<glyph unicode="&#xeb;" />
<glyph unicode="&#xec;" />
<glyph unicode="&#xed;" />
<glyph unicode="&#xee;" />
<glyph unicode="&#xef;" />
<glyph unicode="&#xf0;" />
<glyph unicode="&#xf1;" />
<glyph unicode="&#xf2;" />
<glyph unicode="&#xf3;" />
<glyph unicode="&#xf4;" />
<glyph unicode="&#xf5;" />
<glyph unicode="&#xf6;" />
<glyph unicode="&#xf7;" />
<glyph unicode="&#xf8;" />
<glyph unicode="&#xf9;" />
<glyph unicode="&#xfa;" />
<glyph unicode="&#xfb;" />
<glyph unicode="&#xfc;" />
<glyph unicode="&#xfd;" />
<glyph unicode="&#xfe;" />
<glyph unicode="&#xff;" />
<glyph unicode="&#x152;" />
<glyph unicode="&#x153;" />
<glyph unicode="&#x178;" />
<glyph unicode="&#x2c6;" />
<glyph unicode="&#x2dc;" />
<glyph unicode="&#x2000;" horiz-adv-x="795" />
<glyph unicode="&#x2001;" horiz-adv-x="1591" />
<glyph unicode="&#x2002;" horiz-adv-x="795" />
<glyph unicode="&#x2003;" horiz-adv-x="1591" />
<glyph unicode="&#x2004;" horiz-adv-x="530" />
<glyph unicode="&#x2005;" horiz-adv-x="397" />
<glyph unicode="&#x2006;" horiz-adv-x="265" />
<glyph unicode="&#x2007;" horiz-adv-x="265" />
<glyph unicode="&#x2008;" horiz-adv-x="198" />
<glyph unicode="&#x2009;" horiz-adv-x="318" />
<glyph unicode="&#x200a;" horiz-adv-x="88" />
<glyph unicode="&#x2010;" d="M221 758q-14 14 4 35l99 86h442l63 -58q11 -7 10.5 -19t-12.5 -22l-88 -88h-448z" />
<glyph unicode="&#x2011;" d="M221 758q-14 14 4 35l99 86h442l63 -58q11 -7 10.5 -19t-12.5 -22l-88 -88h-448z" />
<glyph unicode="&#x2012;" d="M221 758q-14 14 4 35l99 86h442l63 -58q11 -7 10.5 -19t-12.5 -22l-88 -88h-448z" />
<glyph unicode="&#x2013;" />
<glyph unicode="&#x2014;" />
<glyph unicode="&#x2018;" />
<glyph unicode="&#x2019;" d="M8 145l55 514q6 29 31 48l51 51q10 10 25 10q8 0 20 -10l76 -70l-63 -487l-133 -129q-21 -21 -33 0l-17 28q-12 12 -12 45zM70 6q-8 22 10 43l129 131h461l106 -106q27 -20 -4 -45l-24 -25q-12 -12 -39 -12h-603q-26 0 -36 14zM94 895l64 508q11 32 18 41l27 24 q13 9 18 9q14 0 23 -9l104 -104l-57 -473l-88 -84q-9 -12 -19 -12q-14 0 -26 12l-52 53q-12 12 -12 35zM215 193l27 210l186 275l-25 -213zM221 758l70 -66h223l23 187h-213l-99 -86q-18 -21 -4 -35zM248 1502q0 10 8 18l51 47q16 24 39 24h590q9 0 25 -24q3 -23 -5 -37 l-143 -144h-457l-100 99q-8 7 -8 17zM336 1153l119 -266l28 229l-121 256zM381 193h129l57 485h-127zM471 887h129l57 485h-131zM514 692l23 187h229l63 -58q11 -7 10.5 -19t-12.5 -22l-88 -88h-225zM553 465l123 -272l29 213l-127 272zM610 887l27 229l184 256l-26 -219z M690 186l62 486l106 108q8 9 16.5 9t14.5 -9l45 -43q14 -21 14 -41l-67 -544q-5 -17 -23 -39l-29 -27q-8 -8 -18 -10q-11 3 -18 10zM776 907l60 475l127 125q18 14 30 -4l33 -47q19 -25 6 -57l-59 -471q-7 -41 -25 -56l-47 -51q-8 -8 -20 -8q-9 0 -17 8z" />
<glyph unicode="&#x201a;" />
<glyph unicode="&#x201c;" />
<glyph unicode="&#x201d;" />
<glyph unicode="&#x201e;" />
<glyph unicode="&#x2022;" />
<glyph unicode="&#x2026;" />
<glyph unicode="&#x202f;" horiz-adv-x="318" />
<glyph unicode="&#x2039;" />
<glyph unicode="&#x203a;" />
<glyph unicode="&#x205f;" horiz-adv-x="397" />
<glyph unicode="&#x20ac;" />
<glyph unicode="&#x2122;" />
<glyph unicode="&#xe000;" horiz-adv-x="880" d="M0 0v881h881v-881h-881z" />
<glyph unicode="&#xfb01;" />
<glyph unicode="&#xfb02;" />
</font>
</defs>
</svg>
